<svg xmlns="http://www.w3.org/2000/svg" width="53" height="52" viewBox="0 0 53 52">
    <path fill="none" fill-rule="evenodd" stroke="#132434" stroke-linecap="round" stroke-linejoin="round" stroke-width="1.5" d="M2.133 22.8c.254-.411.626-.737 1.067-.933 4.4-1.334 28.933-8.8 31.333-8.8 2.4 0 4.934 5.6 4.934 12.8 0 7.2-2 13.066-4.934 13.066L3.2 29.733c-.492-.107-.895-.46-1.067-.933-.95-1.887-.95-4.113 0-6zm32.4-9.733S29.6 13.733 29.6 26s4.933 12.933 4.933 12.933M9.467 31.6s-.534 3.6.933 4.267c1.534.713 3.145 1.25 4.8 1.6 3.067.933 2.933-3.334 2.933-3.334m23.2-15.066l7.734-1.867m-6.934 9.2h8.534m-9.334 6.267l7.734 2.133"/>
</svg>
