<svg xmlns="http://www.w3.org/2000/svg" width="53" height="52" viewBox="0 0 53 52">
    <g fill="none" fill-rule="evenodd">
        <path stroke="#132434" stroke-linecap="round" stroke-linejoin="round" stroke-width="1.5" d="M9.823 41.092s5.669-3.69 15.292-3.69c5.293-.145 10.527 1.129 15.16 3.69m-3.954-16.344c-5.992-.072-10.81-4.95-10.81-10.94-.041-1.502.275-2.993.923-4.35h-1.45C14.569 9.327 6 18.29 6 29.23 6 40.17 14.569 49 24.984 49c10.724-.216 19.262-9.047 19.115-19.77.014-2.38-.387-4.745-1.187-6.986-1.884 1.498-4.187 2.373-6.591 2.504zm10.678-10.94c.002 5.94-4.738 10.797-10.678 10.94-5.992-.072-10.81-4.95-10.81-10.94C25.51 7.838 30.35 3 36.32 3c2.855 0 5.591 1.143 7.598 3.173 2.006 2.031 3.115 4.78 3.08 7.635zm-21.884 35.06V9.458c-.263 0-10.019 2.11-9.755 19.771.264 17.662 9.755 19.64 9.755 19.64zM6 29.23h38.099M9.955 17.235s6.987 4.218 17.929 3.295m6.328 3.954s2.24 21.353-9.097 24.384"/>
        <path fill="#132434" d="M34 19.333L34 8 41.467 13.733z"/>
    </g>
</svg>
